inDegrees=no
num_controls=7
num_derivatives=13
num_iterations=210
num_multipliers=7
num_parameters=0
num_slacks=7
num_states=26
objective=5.957302
objective_accelerations=0.733572
objective_balance=0.137808
objective_effort=0.457794
objective_height=4.558862
objective_ligament=0.069266
solver_duration=2399.466314
status=Solve_Succeeded
success=true
DataType=double
version=3
OpenSimVersion=4.4-2022-07-23-0e9fedc
endheader
time	/jointset/ground_pelvis/pelvis_tilt/value	/jointset/ground_pelvis/pelvis_tx/value	/jointset/ground_pelvis/pelvis_ty/value	/jointset/hip_l/hip_flexion_l/value	/jointset/hip_l/hip_adduction_l/value	/jointset/hip_l/hip_rotation_l/value	/jointset/back/lumbar_extension/value	/jointset/patellofemoral_l/patellar_flexion_l/value	/jointset/knee_l/knee_flexion_l/value	/jointset/knee_l/knee_adduction_l/value	/jointset/knee_l/knee_rotation_l/value	/jointset/ankle_l/ankle_angle_l/value	/jointset/subtalar_l/subtalar_angle_l/value	/jointset/ground_pelvis/pelvis_tilt/speed	/jointset/ground_pelvis/pelvis_tx/speed	/jointset/ground_pelvis/pelvis_ty/speed	/jointset/hip_l/hip_flexion_l/speed	/jointset/hip_l/hip_adduction_l/speed	/jointset/hip_l/hip_rotation_l/speed	/jointset/back/lumbar_extension/speed	/jointset/patellofemoral_l/patellar_flexion_l/speed	/jointset/knee_l/knee_flexion_l/speed	/jointset/knee_l/knee_adduction_l/speed	/jointset/knee_l/knee_rotation_l/speed	/jointset/ankle_l/ankle_angle_l/speed	/jointset/subtalar_l/subtalar_angle_l/speed	/forceset/tau_hip_flexion_l	/forceset/tau_hip_adduction_l	/forceset/tau_hip_rotation_l	/forceset/tau_knee_flexion_l	/forceset/tau_ankle_angle_l	/forceset/tau_subtalar_angle_l	/forceset/tau_lumbar_extension	lambda_cid13_p0	lambda_cid13_p1	lambda_cid13_p2	lambda_cid13_p3	lambda_cid13_p4	lambda_cid13_p5	lambda_cid14_p0	/jointset/ground_pelvis/pelvis_tilt/accel	/jointset/ground_pelvis/pelvis_tx/accel	/jointset/ground_pelvis/pelvis_ty/accel	/jointset/hip_l/hip_flexion_l/accel	/jointset/hip_l/hip_adduction_l/accel	/jointset/hip_l/hip_rotation_l/accel	/jointset/back/lumbar_extension/accel	/jointset/patellofemoral_l/patellar_flexion_l/accel	/jointset/knee_l/knee_flexion_l/accel	/jointset/knee_l/knee_adduction_l/accel	/jointset/knee_l/knee_rotation_l/accel	/jointset/ankle_l/ankle_angle_l/accel	/jointset/subtalar_l/subtalar_angle_l/accel	gamma_cid13_p0	gamma_cid13_p1	gamma_cid13_p2	gamma_cid13_p3	gamma_cid13_p4	gamma_cid13_p5	gamma_cid14_p0
0.5	-0.4548656718272474	-0.0550319391669644	0.7543302868897434	1.298631113093869	-0.3079449556268408	-0.01749127520383012	-0.3328970922483663	0.7667796038022894	0.7667796038022056	-0.1706110909603559	0.1745209438684046	0.0968227401226137	-0.0360411420420414	-0.759570596386106	-0.2233075969631204	-0.5387000538056681	2.478612162905944	-0.006693873747216555	0.6985372901113021	-0.6222300154727687	1.982774580556678	1.982774580556458	-0.01166870362068703	1.32655233084426e-05	0.3792293499917476	0.04588838977036518	-0.2524087551277369	0.02360239081279038	-0.02072533304049699	-0.1975848030902819	0.09017506111989172	0.0459229235798884	0.2247500559844974	-9.057571202289203	-21.14465431013417	6.151177680270127	-1.929937339445176	-604.7496077399926	-57.31015718634001	-23.71013747780156	0.6611767305250903	0.6719190061161089	-0.373816067775629	-1.572539613024522	0.6933349258738928	-0.3572256695174392	1.844741664063835	-1.272143819884615	-1.272143819884613	-0.004376231503243331	-0.01252990051622121	-0.3432803771665682	0.6816571666373692	-3.841459375642503e-07	-1.006113311641323e-06	1.922603858230871e-06	1.281800009675398e-07	-4.608961930785883e-07	-1.207965430589657e-07	-4.043504496320394e-07
0.51	-0.4624266641733387	-0.05723116085924925	0.7489257674658997	1.323334198958956	-0.3079788838988632	-0.01052373920526655	-0.3390272220090324	0.7865405425541089	0.7865405425540241	-0.1707311866704801	0.1745210516028606	0.1005966624085888	-0.03555004230774768	-0.7525304018926084	-0.2165194871008775	-0.542090394603665	2.461678210954276	-0.0001154333684569388	0.694881802890145	-0.6037298791385141	1.969143486575976	1.969143486575868	-0.01234234052792802	1.273247119391117e-05	0.3754850640248063	0.05230743528926067	-0.2609628199862254	0.02410323165600748	-0.02073012662486247	-0.19891329548904	0.08852129704619756	0.04623072191905997	0.231335084036872	-9.853896394433171	-21.03672826387565	6.017265514215085	-1.711118942364977	-609.747743298566	-56.85895478556589	-22.51254108877191	0.7400179997449349	0.6848697954833333	-0.304715431592864	-1.802896278430448	0.6363925380919588	-0.3832822532938623	1.862558246393486	-1.448966223049103	-1.448966223032319	-0.09773059721281099	0.006453516751731761	-0.4005163238172916	0.6183440301735358	-3.554038273991026e-07	-9.16265695890477e-07	1.815062610789796e-06	1.189251468510125e-07	-4.197156165046244e-07	-6.765143093511357e-08	-3.797907464444466e-07
0.52	-0.469914339136299	-0.05936197888907077	0.7434907301649201	1.347858130646087	-0.307947768978254	-0.003595472479895744	-0.3449703686806988	0.8061570955589489	0.8061570955588571	-0.1708577933850597	0.1745212077116207	0.1043310391114222	-0.03499548896113343	-0.7449071197597936	-0.2096268644704549	-0.544803629232913	2.442781327314905	0.006314764778904483	0.6906834354738294	-0.5848333976727683	1.953897431159831	1.953897431159835	-0.01297090451030076	2.294039151094424e-05	0.3713202333634897	0.05857911223447208	-0.2695168848447245	0.02460407249921105	-0.02073492020929244	-0.2002417878877934	0.08686753297249986	0.0465385202582162	0.2379201120892397	-10.65412217618737	-20.93167288109563	5.887871503499035	-1.507486021629539	-614.8286638825213	-56.49035668115448	-21.31279501854886	0.7777942583885454	0.6928215597520739	-0.2383948340258158	-1.965125950565064	0.6636864795942704	-0.4658017085490997	1.924010690362076	-1.595136106973145	-1.595136106973152	0.004638353470411864	-0.01038170602996975	-0.4273893160416132	0.6521834519005797	-3.267258819448525e-07	-8.266677398955498e-07	1.704994167106697e-06	1.100837933788022e-07	-3.807563246602238e-07	-1.898052259644224e-08	-3.546290096244739e-07
0.53	-0.4773230039081554	-0.06142342733661948	0.7380319559400448	1.372183622478563	-0.3078529734590408	0.003288133717588098	-0.3507226586920297	0.8256133764025224	0.8256133764024768	-0.1709901043827429	0.1745214499733384	0.1080218131662783	-0.03437881578447598	-0.7367350501994617	-0.2026525255728504	-0.5468352656929026	2.422004163360327	0.01261460904483298	0.6859536072529541	-0.5655751964846725	1.937100478141063	1.937100478141054	-0.013484354880053	2.866697740871223e-05	0.3667698234309149	0.06472491139178313	-0.277874705233801	0.02489217356496736	-0.02071804495730196	-0.2016799118940027	0.08534047531166469	0.04667089881901867	0.2442989662831543	-11.41612945397113	-20.75497494654628	5.744599113168024	-1.280910046041857	-619.8536564634343	-56.02886141585464	-20.11271189956986	0.8504935982288326	0.7013060627242633	-0.1682276031588769	-2.180988576560253	0.6085241056241603	-0.4895094909859195	1.934136049337962	-1.760645528944428	-1.760645528946451	-0.07837072586756597	0.006171218474735357	-0.4785830524992007	0.5911174434937416	-2.98742928512437e-07	-7.399287982103447e-07	1.59482685864166e-06	1.019713162558575e-07	-3.441758095496845e-07	2.462410064754315e-08	-3.294726096000689e-07
0.54	-0.4846472319257345	-0.06341481919360033	0.732556329440335	1.396291947279762	-0.3076961013560606	0.01012185441043309	-0.3562808844482189	0.8448939535899884	0.8448939535899841	-0.1711273566828624	0.1745217737764276	0.1116651398776818	-0.03370161675707595	-0.7280197689041928	-0.1956155463568787	-0.5481740841998348	2.399347921059506	0.01873008153204394	0.6807063345469133	-0.5460205466443893	1.918756699937662	1.918756699937639	-0.01395916499658618	3.924866630960892e-05	0.3618307646729892	0.07068428238298922	-0.2862325256228838	0.02518027463071544	-0.02070116970534646	-0.2031180359002099	0.08381341765082745	0.04680327737981176	0.2506778204770647	-12.18348474869494	-20.58036480120051	5.605115174181159	-1.062423115355389	-624.9792035642661	-55.64343763918212	-18.91454571272521	0.8864366053759603	0.7053496234255534	-0.09983124341434377	-2.340941619813642	0.6268121238507841	-0.5692906055821408	1.983300420799578	-1.904501143899856	-1.90450114389984	0.01236640411422881	-0.009410685429422564	-0.5051190811117543	0.6148978186796219	-2.715289024233276e-07	-6.563530212933431e-07	1.484550167864692e-06	9.466525551933441e-08	-3.102271325276724e-07	6.262347229740786e-08	-3.04322114115441e-07
0.55	-0.4918817429327461	-0.06533560676960522	0.7270707782844115	1.420164654815405	-0.3074788660535744	0.01690050518260433	-0.361642165120463	0.863983598067528	0.8639835980676028	-0.1712687849561534	0.1745221633917977	0.1152572699232015	-0.03296560844472059	-0.7187984667233016	-0.18853834915502	-0.5488189661922807	2.374895364192628	0.02468205143075868	0.6749405813937326	-0.5262030832383543	1.898926508444006	1.89892650844388	-0.01431841233824023	4.257397694360925e-05	0.356536504514074	0.07648097186419198	-0.2943455231316814	0.02528655671862572	-0.02065861400174116	-0.204614538927777	0.08238155374325097	0.04676874145414416	0.2568083133974467	-12.91740685585848	-20.33660145757533	5.451731100789369	-0.8204572746954316	-629.9671825042077	-55.16556808193315	-17.72077107060592	0.9525407697472171	0.7094658579801502	-0.02929790019202554	-2.542183813233609	0.5740117481279716	-0.5929614435121617	1.985844985408953	-2.059073100368505	-2.059073100384081	-0.05892054742496525	0.00548458310193644	-0.550390139258605	0.5565233647740504	-2.466165956336532e-07	-5.718801806539937e-07	1.383327576499186e-06	9.036894954662999e-08	-2.799249196634519e-07	9.739007364493641e-08	-2.800759960889404e-07
0.5600000000000001	-0.4990215281688894	-0.0671855101557088	0.721582282063957	1.443783882563756	-0.3072031865870504	0.02361894966857688	-0.3668042960216663	0.8828675816404783	0.8828675816406297	-0.1714135757516865	0.1745226423490298	0.1187946952359369	-0.03217273946716648	-0.7090746147303453	-0.1814387083766139	-0.548763097106031	2.3486519636014	0.03041891433931862	0.6686650773075076	-0.5061905924361765	1.877624519019547	1.877624519019317	-0.01463166944468345	5.711703926241518e-05	0.3508898181160713	0.08205641542273276	-0.3024585206404801	0.02539283880653653	-0.02061605829812968	-0.2061110419553449	0.08094968983567492	0.04673420552847719	0.2629388063178278	-13.65749525376823	-20.09426221917358	5.301435094028835	-0.5826698053765335	-635.064817513683	-54.75644876723682	-16.53446598670126	0.9869465677890131	0.7098383387350493	0.04031897232475048	-2.69911036468364	0.5837907258198511	-0.671240792190938	2.022305900028214	-2.198860730060457	-2.198860730060462	0.02156445115639676	-0.007167135092544222	-0.5756043289292194	0.5706486341472627	-2.244663520033006e-07	-4.86330863547827e-07	1.292969904427435e-06	8.968434929050788e-08	-2.539984637885814e-07	1.282773506296617e-07	-2.569151310121926e-07
0.5700000000000001	-0.5060617228797298	-0.06896438178042254	0.7160978425383143	1.467132037165938	-0.3068710864884001	0.03027213208150277	-0.3717654024142352	0.901531367848472	0.9015313678484438	-0.1715609586983121	0.1745231943431356	0.1222740060932712	-0.03132508277473564	-0.6988870001774558	-0.1743382940695251	-0.5480073824290852	2.320694871870062	0.03596132630726731	0.6618902357855592	-0.4860146326934458	1.854899042560996	1.854899042561004	-0.01483729967454235	5.714299527849958e-05	0.3449197153777006	0.08743276210485239	-0.3102931747473301	0.02534739068612973	-0.02054431118247904	-0.2076303721485176	0.07957117152749865	0.04655010364188625	0.2687924578443461	-14.37394563079601	-19.78833639302671	5.137837804709466	-0.3127823816095719	-639.9700912549068	-54.26202512438839	-15.35975881658156	1.046242883748343	0.7097592106470776	0.11076368780927	-2.886652009268016	0.5333676385031041	-0.6929941216570477	2.017649019012032	-2.344394343696639	-2.344394343660829	-0.04052798695860858	0.003902052687922846	-0.6156051311098565	0.5147274135139812	-2.014200569110708e-07	-4.062380850661452e-07	1.196251081837829e-06	8.67881016147573e-08	-2.274120957742264e-07	1.53020799443052e-07	-2.332487066787171e-07
0.58	-0.5129977266481003	-0.07067232601527525	0.710624473353927	1.490192092164424	-0.3064847820288247	0.03685508842131842	-0.3765242676078537	0.919960898643891	0.9199608986436866	-0.1717101781926156	0.1745238095151928	0.1256920375462586	-0.03042494266982963	-0.6882364262361859	-0.1672532304044028	-0.5465490288549623	2.291032042862359	0.04125978652404131	0.6546198626852003	-0.465742352646052	1.830773436504679	1.830773436504927	-0.01499897898046311	6.97526208644141e-05	0.338633937246576	0.09255309791775859	-0.3181278288541775	0.02530194256573211	-0.02047256406678771	-0.2091497023416932	0.0781926532193255	0.04636600175530608	0.2746461093708654	-15.09630140362734	-19.48331937003311	4.976605532393505	-0.04936911187365313	-644.9805698615352	-53.82792618646287	-14.19938274053823	1.079538445465037	0.7067682103417539	0.1808467517602058	-3.040257819956708	0.5350003755849242	-0.7703471078729939	2.041569960960862	-2.478886649613467	-2.478886649613453	0.03035463594401856	-0.004650401178618213	-0.6387394074799699	0.5194464603045955	-1.772068110777918e-07	-3.332514964210026e-07	1.091247970201717e-06	8.101156892739776e-08	-1.999663072991478e-07	1.697629836612154e-07	-2.08923879592294e-07
0.59	-0.5198250691922821	-0.07230956384189889	0.7051691850208209	1.512947293976285	-0.3060465724551646	0.04336285956525899	-0.3810799931190724	0.938142358989248	0.93814235898909	-0.1718604497293296	0.1745244934057128	0.1290457597726921	-0.02947472345927225	-0.6771616985762147	-0.1602024959666732	-0.5443918316107265	2.259737813833912	0.04633793402668727	0.646857054727873	-0.4454022049255187	1.805296325061592	1.805296325061616	-0.01505002435081189	6.947640408172542e-05	0.3320645878396808	0.09744315779617345	-0.3256414929321058	0.02511938184515851	-0.02037169614031529	-0.210686591269635	0.07687551262523958	0.04605271800636708	0.2801920220088364	-15.78939841066781	-19.12462949124288	4.803740316859655	0.2388413415359638	-649.7576010692384	-53.32570266300559	-13.05551140967005	1.131978401941313	0.703017429084947	0.2506403567015668	-3.214604762837359	0.4874751885690861	-0.7910110987144173	2.030318878410696	-2.615430582793343	-2.615430582826888	-0.02206803474064368	0.002432433891501388	-0.6729142781721831	0.4665729237294148	-1.532550980784416e-07	-2.662169726086997e-07	9.839395446218684e-07	7.408529703715506e-08	-1.730755820751425e-07	1.807449517830069e-07	-1.847978310197975e-07
